<?xml version="1.0" encoding="UTF-8"?> <svg xmlns="http://www.w3.org/2000/svg" id="Layer_1" version="1.1" viewBox="0 0 640 512"><defs><style> .st0 { fill: #163317; } </style></defs><path class="st0" d="M480,416h96c35.3,0,64-28.7,64-64v-192c0-35.3-28.7-64-64-64h-96v320ZM448,96H192v320h256V96ZM64,96C28.7,96,0,124.7,0,160v192c0,35.3,28.7,64,64,64h96V96h-96ZM248,208c0-13.3,10.7-24,24-24s24,10.7,24,24-10.7,24-24,24-24-10.7-24-24ZM368,184c13.3,0,24,10.7,24,24s-10.7,24-24,24-24-10.7-24-24,10.7-24,24-24ZM248,304c0-13.3,10.7-24,24-24s24,10.7,24,24-10.7,24-24,24-24-10.7-24-24ZM368,280c13.3,0,24,10.7,24,24s-10.7,24-24,24-24-10.7-24-24,10.7-24,24-24Z"></path></svg> 