<?xml version="1.0" encoding="UTF-8"?> <svg xmlns="http://www.w3.org/2000/svg" id="Layer_1" version="1.1" viewBox="0 0 576 512"><defs><style> .st0 { fill: #163317; } </style></defs><path class="st0" d="M287.9,0c9.2,0,17.6,5.2,21.6,13.5l68.6,141.3,153.2,22.6c9,1.3,16.5,7.6,19.3,16.3s.5,18.1-5.9,24.5l-111.1,110.2,26.2,155.6c1.5,9-2.2,18.1-9.7,23.5-7.5,5.4-17.3,6-25.3,1.7l-137-73.2-136.8,73.1c-8.1,4.3-17.9,3.7-25.3-1.7s-11.2-14.5-9.7-23.5l26.2-155.6L31.1,218.2c-6.5-6.4-8.7-15.9-5.9-24.5s10.3-14.9,19.3-16.3l153.2-22.6L266.3,13.5c4.1-8.3,12.4-13.5,21.6-13.5ZM287.9,79l-52.5,108.2c-3.5,7.1-10.2,12.1-18.1,13.3l-118.3,17.4,85.9,85.1c5.5,5.5,8.1,13.3,6.8,21l-20.3,119.7,105.2-56.2c7.1-3.8,15.6-3.8,22.6,0l105.2,56.2-20.2-119.6c-1.3-7.7,1.2-15.5,6.8-21l85.9-85.1-118.3-17.5c-7.8-1.2-14.6-6.1-18.1-13.3l-52.6-108.2Z"></path></svg> 