<?xml version="1.0" encoding="UTF-8"?> <svg xmlns="http://www.w3.org/2000/svg" id="Layer_1" version="1.1" viewBox="0 0 576 512"><defs><style> .st0 { fill: #163317; } </style></defs><path class="st0" d="M249.6,471.5c10.8,3.8,22.4-4.1,22.4-15.5V78.6c0-4.2-1.6-8.4-5-11-19.6-15.6-64.6-35.6-123-35.6s-97.7,13.3-125.9,24.1C6.8,60.5,0,71.7,0,83.8v370.3c0,11.9,12.8,20.2,24.1,16.5,31.5-10.5,81.4-22.6,119.9-22.6s79,14,105.6,23.5ZM326.4,471.5c26.6-9.5,71.7-23.5,105.6-23.5s88.4,12.1,119.9,22.6c11.3,3.8,24.1-4.6,24.1-16.5V83.8c0-12.1-6.8-23.3-18.1-27.6-28.2-10.9-75.4-24.2-125.9-24.2s-103.4,20-123,35.6c-3.3,2.6-5,6.8-5,11v377.4c0,11.4,11.7,19.3,22.4,15.5h0Z"></path></svg> 