<?xml version="1.0" encoding="UTF-8"?> <svg xmlns="http://www.w3.org/2000/svg" id="Layer_1" version="1.1" viewBox="0 0 512 512"><defs><style> .st0 { fill: #163317; } </style></defs><path class="st0" d="M272,96c-78.6,0-145.1,51.5-167.7,122.5,33.6-17,71.5-26.5,111.7-26.5h88c8.8,0,16,7.2,16,16s-7.2,16-16,16h-88c-16.6,0-32.7,1.9-48.3,5.4-25.9,5.9-49.9,16.4-71.4,30.7h0C38.3,298.8,0,364.9,0,440v16c0,13.3,10.7,24,24,24s24-10.7,24-24v-16c0-48.7,20.7-92.5,53.8-123.2,19.8,75.5,88.5,131.2,170.2,131.2h1c132.1-.7,239-130.9,239-291.4s-7.5-83.1-21.1-119.6c-2.6-6.9-12.7-6.6-16.2,0-18.8,35.2-56,59.1-98.7,59.1h-104Z"></path></svg> 